<svg width="56" height="32" viewBox="0 0 56 32" fill="none" xmlns="http://www.w3.org/2000/svg">
<rect width="56" height="32" rx="4" fill="#FF6633"/>
<path d="M9.75325 16.872C9.64658 16.872 9.55592 16.84 9.48125 16.776C9.41725 16.7013 9.38525 16.6107 9.38525 16.504V15.896C9.38525 15.7893 9.41725 15.704 9.48125 15.64C9.55592 15.5653 9.64658 15.528 9.75325 15.528H14.5533C14.6599 15.528 14.7453 15.5653 14.8093 15.64C14.8839 15.704 14.9213 15.7893 14.9213 15.896V16.504C14.9213 16.6107 14.8839 16.7013 14.8093 16.776C14.7453 16.84 14.6599 16.872 14.5533 16.872H9.75325ZM20.5626 21.16C19.72 21.16 19.0053 21.016 18.4186 20.728C17.8426 20.4293 17.4 20.0453 17.0906 19.576C16.792 19.1067 16.632 18.6107 16.6106 18.088C16.6 17.992 16.6266 17.9173 16.6906 17.864C16.7546 17.8107 16.8346 17.784 16.9306 17.784H17.7946C17.8906 17.784 17.976 17.8053 18.0506 17.848C18.1253 17.8907 18.184 17.9813 18.2266 18.12C18.3333 18.5147 18.504 18.84 18.7386 19.096C18.984 19.3413 19.2613 19.5227 19.5706 19.64C19.8906 19.7467 20.2213 19.8 20.5626 19.8C21.0213 19.8 21.4373 19.7093 21.8106 19.528C22.1946 19.336 22.4986 19.0587 22.7226 18.696C22.9466 18.3227 23.0586 17.8747 23.0586 17.352C23.0586 16.872 22.9466 16.4613 22.7226 16.12C22.5093 15.768 22.2106 15.5013 21.8266 15.32C21.4533 15.128 21.032 15.032 20.5626 15.032C20.2106 15.032 19.9226 15.0747 19.6986 15.16C19.4746 15.2453 19.2826 15.3467 19.1226 15.464C18.9733 15.5813 18.8346 15.6827 18.7066 15.768C18.5893 15.8533 18.456 15.896 18.3066 15.896H17.4746C17.3786 15.896 17.2933 15.864 17.2186 15.8C17.144 15.7253 17.112 15.64 17.1226 15.544L17.6346 10.2C17.6453 10.072 17.6826 9.976 17.7466 9.912C17.8213 9.83733 17.9173 9.8 18.0346 9.8H23.6186C23.7253 9.8 23.8106 9.83733 23.8746 9.912C23.9493 9.976 23.9866 10.0613 23.9866 10.168V10.792C23.9866 10.9093 23.9493 11 23.8746 11.064C23.8106 11.128 23.7253 11.16 23.6186 11.16H19.0106L18.7066 14.312C18.856 14.216 19.096 14.104 19.4266 13.976C19.7573 13.8373 20.2106 13.768 20.7866 13.768C21.3093 13.768 21.8 13.848 22.2586 14.008C22.728 14.168 23.144 14.4027 23.5066 14.712C23.8693 15.0213 24.152 15.4 24.3546 15.848C24.5573 16.2853 24.6586 16.792 24.6586 17.368C24.6586 18.1787 24.4773 18.8667 24.1146 19.432C23.7626 19.9973 23.2773 20.4293 22.6586 20.728C22.0506 21.016 21.352 21.16 20.5626 21.16ZM30.4626 21.16C29.7266 21.16 29.1026 21.048 28.5906 20.824C28.0893 20.5893 27.6786 20.2693 27.3586 19.864C27.0386 19.4587 26.804 18.9947 26.6546 18.472C26.516 17.9493 26.436 17.3947 26.4146 16.808C26.404 16.52 26.3933 16.216 26.3826 15.896C26.3826 15.576 26.3826 15.256 26.3826 14.936C26.3933 14.6053 26.404 14.2907 26.4146 13.992C26.4253 13.4053 26.5053 12.8507 26.6546 12.328C26.8146 11.7947 27.0493 11.3307 27.3586 10.936C27.6786 10.5307 28.0946 10.216 28.6066 9.992C29.1186 9.75733 29.7373 9.64 30.4626 9.64C31.1986 9.64 31.8173 9.75733 32.3186 9.992C32.8306 10.216 33.2466 10.5307 33.5666 10.936C33.8866 11.3307 34.1213 11.7947 34.2706 12.328C34.4306 12.8507 34.516 13.4053 34.5266 13.992C34.5373 14.2907 34.5426 14.6053 34.5426 14.936C34.5533 15.256 34.5533 15.576 34.5426 15.896C34.5426 16.216 34.5373 16.52 34.5266 16.808C34.516 17.3947 34.4306 17.9493 34.2706 18.472C34.1213 18.9947 33.8866 19.4587 33.5666 19.864C33.2573 20.2693 32.8466 20.5893 32.3346 20.824C31.8333 21.048 31.2093 21.16 30.4626 21.16ZM30.4626 19.8C31.2946 19.8 31.908 19.528 32.3026 18.984C32.708 18.4293 32.916 17.6773 32.9266 16.728C32.948 16.4187 32.9586 16.12 32.9586 15.832C32.9586 15.5333 32.9586 15.24 32.9586 14.952C32.9586 14.6533 32.948 14.36 32.9266 14.072C32.916 13.144 32.708 12.4027 32.3026 11.848C31.908 11.2827 31.2946 11 30.4626 11C29.6413 11 29.028 11.2827 28.6226 11.848C28.228 12.4027 28.02 13.144 27.9986 14.072C27.9986 14.36 27.9933 14.6533 27.9826 14.952C27.9826 15.24 27.9826 15.5333 27.9826 15.832C27.9933 16.12 27.9986 16.4187 27.9986 16.728C28.02 17.6773 28.2333 18.4293 28.6386 18.984C29.044 19.528 29.652 19.8 30.4626 19.8ZM37.2909 21C37.0669 21 36.9549 20.8933 36.9549 20.68C36.9549 20.616 36.9762 20.5573 37.0189 20.504L44.9229 10.104C44.9975 10.008 45.0669 9.93333 45.1309 9.88C45.2055 9.82667 45.3122 9.8 45.4509 9.8H45.9789C46.2029 9.8 46.3149 9.90667 46.3149 10.12C46.3149 10.184 46.2935 10.2427 46.2509 10.296L38.3629 20.696C38.2882 20.792 38.2135 20.8667 38.1389 20.92C38.0749 20.9733 37.9682 21 37.8189 21H37.2909ZM44.6189 21.096C43.9149 21.096 43.3655 20.8987 42.9709 20.504C42.5762 20.1093 42.3575 19.592 42.3149 18.952C42.3042 18.6747 42.2989 18.44 42.2989 18.248C42.2989 18.0453 42.3042 17.7947 42.3149 17.496C42.3469 16.856 42.5549 16.3387 42.9389 15.944C43.3229 15.5387 43.8829 15.336 44.6189 15.336C45.3655 15.336 45.9255 15.5387 46.2989 15.944C46.6829 16.3387 46.8962 16.856 46.9389 17.496C46.9602 17.7947 46.9709 18.0453 46.9709 18.248C46.9709 18.44 46.9602 18.6747 46.9389 18.952C46.8962 19.592 46.6722 20.1093 46.2669 20.504C45.8722 20.8987 45.3229 21.096 44.6189 21.096ZM44.6189 20.04C44.8962 20.04 45.1149 19.9813 45.2749 19.864C45.4455 19.7467 45.5682 19.6027 45.6429 19.432C45.7175 19.2507 45.7602 19.0693 45.7709 18.888C45.7922 18.6 45.8029 18.376 45.8029 18.216C45.8029 18.0453 45.7922 17.8267 45.7709 17.56C45.7602 17.272 45.6695 17.0053 45.4989 16.76C45.3282 16.5147 45.0349 16.392 44.6189 16.392C44.2135 16.392 43.9255 16.5147 43.7549 16.76C43.5949 17.0053 43.5042 17.272 43.4829 17.56C43.4722 17.8267 43.4669 18.0453 43.4669 18.216C43.4669 18.376 43.4722 18.6 43.4829 18.888C43.5042 19.0693 43.5469 19.2507 43.6109 19.432C43.6855 19.6027 43.8029 19.7467 43.9629 19.864C44.1335 19.9813 44.3522 20.04 44.6189 20.04ZM38.6349 15.416C37.9309 15.416 37.3815 15.2293 36.9869 14.856C36.5922 14.4827 36.3735 13.976 36.3309 13.336C36.3202 13.0587 36.3149 12.824 36.3149 12.632C36.3149 12.4293 36.3202 12.1787 36.3309 11.88C36.3629 11.24 36.5709 10.7227 36.9549 10.328C37.3389 9.92267 37.8989 9.72 38.6349 9.72C39.3815 9.72 39.9415 9.92267 40.3149 10.328C40.6989 10.7227 40.9069 11.24 40.9389 11.88C40.9602 12.1787 40.9709 12.4293 40.9709 12.632C40.9709 12.824 40.9602 13.0587 40.9389 13.336C40.9069 13.976 40.6882 14.4827 40.2829 14.856C39.8882 15.2293 39.3389 15.416 38.6349 15.416ZM38.6349 14.424C38.9122 14.424 39.1309 14.3653 39.2909 14.248C39.4615 14.1307 39.5842 13.9867 39.6589 13.816C39.7335 13.6347 39.7762 13.4533 39.7869 13.272C39.8082 12.984 39.8189 12.76 39.8189 12.6C39.8189 12.4293 39.8082 12.2107 39.7869 11.944C39.7762 11.656 39.6802 11.3893 39.4989 11.144C39.3282 10.8987 39.0402 10.776 38.6349 10.776C38.2295 10.776 37.9415 10.8987 37.7709 11.144C37.6109 11.3893 37.5202 11.656 37.4989 11.944C37.4882 12.2107 37.4829 12.4293 37.4829 12.6C37.4829 12.76 37.4882 12.984 37.4989 13.272C37.5202 13.4533 37.5629 13.6347 37.6269 13.816C37.7015 13.9867 37.8189 14.1307 37.9789 14.248C38.1389 14.3653 38.3575 14.424 38.6349 14.424Z" fill="white"/>
</svg>
